<svg width="56" height="56" viewBox="0 0 56 56" fill="none" xmlns="http://www.w3.org/2000/svg">
<path d="M28 16.3337V49.0004M28 16.3337C27.156 12.8556 25.7027 9.88218 23.8297 7.80108C21.9567 5.71997 19.7509 4.62782 17.5 4.66704C15.9529 4.66704 14.4692 5.28162 13.3752 6.37558C12.2812 7.46954 11.6667 8.95327 11.6667 10.5004C11.6667 12.0475 12.2812 13.5312 13.3752 14.6252C14.4692 15.7191 15.9529 16.3337 17.5 16.3337M28 16.3337C28.844 12.8556 30.2973 9.88218 32.1703 7.80108C34.0433 5.71997 36.2491 4.62782 38.5 4.66704C40.0471 4.66704 41.5308 5.28162 42.6248 6.37558C43.7188 7.46954 44.3333 8.95327 44.3333 10.5004C44.3333 12.0475 43.7188 13.5312 42.6248 14.6252C41.5308 15.7191 40.0471 16.3337 38.5 16.3337M46.6667 25.667V44.3337C46.6667 45.5714 46.175 46.7584 45.2998 47.6335C44.4247 48.5087 43.2377 49.0004 42 49.0004H14C12.7623 49.0004 11.5753 48.5087 10.7002 47.6335C9.825 46.7584 9.33333 45.5714 9.33333 44.3337V25.667M46.6667 25.667C47.9553 25.667 49 24.6224 49 23.3337V18.667C49 17.3784 47.9553 16.3337 46.6667 16.3337H9.33333C8.04467 16.3337 7 17.3784 7 18.667V23.3337C7 24.6224 8.04467 25.667 9.33333 25.667M46.6667 25.667H9.33333" stroke="#D3A376" stroke-width="2" stroke-linecap="round" stroke-linejoin="round"/>
</svg>
