<svg width="534" height="94" viewBox="0 0 534 94" fill="none" xmlns="http://www.w3.org/2000/svg">
<path d="M24.2635 66V31.0909H30.5874V45.8693H46.7635V31.0909H53.1044V66H46.7635V51.1705H30.5874V66H24.2635ZM71.13 66.5114C68.5732 66.5114 66.3572 65.9489 64.4822 64.8239C62.6072 63.6989 61.1527 62.125 60.1186 60.1023C59.0959 58.0795 58.5845 55.7159 58.5845 53.0114C58.5845 50.3068 59.0959 47.9375 60.1186 45.9034C61.1527 43.8693 62.6072 42.2898 64.4822 41.1648C66.3572 40.0398 68.5732 39.4773 71.13 39.4773C73.6868 39.4773 75.9027 40.0398 77.7777 41.1648C79.6527 42.2898 81.1016 43.8693 82.1243 45.9034C83.1584 47.9375 83.6754 50.3068 83.6754 53.0114C83.6754 55.7159 83.1584 58.0795 82.1243 60.1023C81.1016 62.125 79.6527 63.6989 77.7777 64.8239C75.9027 65.9489 73.6868 66.5114 71.13 66.5114ZM71.1641 61.5682C72.5504 61.5682 73.7095 61.1875 74.6413 60.4261C75.5732 59.6534 76.2663 58.6193 76.7209 57.3239C77.1868 56.0284 77.4197 54.5852 77.4197 52.9943C77.4197 51.392 77.1868 49.9432 76.7209 48.6477C76.2663 47.3409 75.5732 46.3011 74.6413 45.5284C73.7095 44.7557 72.5504 44.3693 71.1641 44.3693C69.7436 44.3693 68.5618 44.7557 67.6186 45.5284C66.6868 46.3011 65.9879 47.3409 65.522 48.6477C65.0675 49.9432 64.8402 51.392 64.8402 52.9943C64.8402 54.5852 65.0675 56.0284 65.522 57.3239C65.9879 58.6193 66.6868 59.6534 67.6186 60.4261C68.5618 61.1875 69.7436 61.5682 71.1641 61.5682ZM72.9368 31.9091L79.9084 37.3125H75.1697L71.0959 34.1761L67.0732 37.3125H62.2663L69.255 31.9091H72.9368ZM74.9822 26.0455L77.3004 26.8125C77.3004 27.733 76.9822 28.5795 76.3459 29.3523C75.7095 30.1136 74.88 30.4943 73.8572 30.4943C73.3004 30.4943 72.8061 30.4148 72.3743 30.2557C71.9538 30.0966 71.5618 29.9148 71.1982 29.7102C70.8345 29.5057 70.4652 29.3239 70.0902 29.1648C69.7266 29.0057 69.3232 28.9261 68.88 28.9261C68.4709 28.9261 68.1186 29.0966 67.8232 29.4375C67.5277 29.7784 67.3857 30.1591 67.397 30.5795L65.147 29.9659C65.1357 29.0795 65.4425 28.25 66.0675 27.4773C66.6925 26.6932 67.522 26.3011 68.5561 26.3011C68.9993 26.3011 69.4311 26.375 69.8516 26.5227C70.272 26.6705 70.6811 26.8466 71.0788 27.0511C71.4766 27.2443 71.8743 27.4148 72.272 27.5625C72.6811 27.7102 73.1016 27.7841 73.5334 27.7841C73.9197 27.7841 74.255 27.6023 74.5391 27.2386C74.8345 26.8636 74.9822 26.4659 74.9822 26.0455ZM113.893 39.8182V44.5909H98.8416V39.8182H113.893ZM102.558 33.5455H108.728V58.125C108.728 58.9545 108.853 59.5909 109.103 60.0341C109.364 60.4659 109.705 60.7614 110.126 60.9205C110.546 61.0795 111.012 61.1591 111.523 61.1591C111.91 61.1591 112.262 61.1307 112.58 61.0739C112.91 61.017 113.16 60.9659 113.33 60.9205L114.37 65.7443C114.04 65.858 113.569 65.983 112.955 66.1193C112.353 66.2557 111.614 66.3352 110.739 66.358C109.194 66.4034 107.802 66.1705 106.563 65.6591C105.325 65.1364 104.342 64.3295 103.614 63.2386C102.898 62.1477 102.546 60.7841 102.558 59.1477V33.5455ZM119.053 66V39.8182H125.036V44.1818H125.309C125.786 42.6705 126.604 41.5057 127.763 40.6875C128.934 39.858 130.269 39.4432 131.769 39.4432C132.11 39.4432 132.491 39.4602 132.911 39.4943C133.343 39.517 133.701 39.5568 133.985 39.6136V45.2898C133.724 45.1989 133.309 45.1193 132.741 45.0511C132.184 44.9716 131.644 44.9318 131.121 44.9318C129.996 44.9318 128.985 45.1761 128.087 45.6648C127.201 46.142 126.502 46.8068 125.991 47.6591C125.479 48.5114 125.224 49.4943 125.224 50.608V66H119.053ZM159.506 38.1477H163.631C163.631 40.9205 162.984 43.1023 161.688 44.6932C160.404 46.2727 158.268 47.0625 155.279 47.0625V44.1648C156.461 44.1648 157.353 43.9205 157.955 43.4318C158.569 42.9432 158.978 42.25 159.183 41.3523C159.398 40.4432 159.506 39.375 159.506 38.1477ZM148.427 66.5114C145.87 66.5114 143.654 65.9489 141.779 64.8239C139.904 63.6989 138.45 62.125 137.415 60.1023C136.393 58.0795 135.881 55.7159 135.881 53.0114C135.881 50.3068 136.393 47.9375 137.415 45.9034C138.45 43.8693 139.904 42.2898 141.779 41.1648C143.654 40.0398 145.87 39.4773 148.427 39.4773C150.984 39.4773 153.2 40.0398 155.075 41.1648C156.95 42.2898 158.398 43.8693 159.421 45.9034C160.455 47.9375 160.972 50.3068 160.972 53.0114C160.972 55.7159 160.455 58.0795 159.421 60.1023C158.398 62.125 156.95 63.6989 155.075 64.8239C153.2 65.9489 150.984 66.5114 148.427 66.5114ZM148.461 61.5682C149.847 61.5682 151.006 61.1875 151.938 60.4261C152.87 59.6534 153.563 58.6193 154.018 57.3239C154.484 56.0284 154.717 54.5852 154.717 52.9943C154.717 51.392 154.484 49.9432 154.018 48.6477C153.563 47.3409 152.87 46.3011 151.938 45.5284C151.006 44.7557 149.847 44.3693 148.461 44.3693C147.04 44.3693 145.859 44.7557 144.915 45.5284C143.984 46.3011 143.285 47.3409 142.819 48.6477C142.364 49.9432 142.137 51.392 142.137 52.9943C142.137 54.5852 142.364 56.0284 142.819 57.3239C143.285 58.6193 143.984 59.6534 144.915 60.4261C145.859 61.1875 147.04 61.5682 148.461 61.5682ZM148.444 75.4261C147.455 75.4261 146.609 75.0966 145.904 74.4375C145.211 73.7784 144.864 72.9886 144.864 72.0682C144.864 71.1477 145.211 70.358 145.904 69.6989C146.609 69.0398 147.45 68.7102 148.427 68.7102C149.415 68.7102 150.256 69.0398 150.95 69.6989C151.654 70.358 152.006 71.1477 152.006 72.0682C152.006 72.9886 151.654 73.7784 150.95 74.4375C150.256 75.0966 149.421 75.4261 148.444 75.4261ZM184.35 57.7841L184.333 50.3352H185.322L194.731 39.8182H201.941L190.367 52.7045H189.089L184.35 57.7841ZM178.725 66V31.0909H184.896V66H178.725ZM195.157 66L186.634 54.0852L190.793 49.7386L202.538 66H195.157ZM212.224 50.6591V66H206.053V31.0909H212.087V44.267H212.394C213.008 42.7898 213.957 41.625 215.241 40.7727C216.536 39.9091 218.184 39.4773 220.184 39.4773C222.002 39.4773 223.587 39.858 224.94 40.6193C226.292 41.3807 227.337 42.4943 228.076 43.9602C228.826 45.4261 229.201 47.2159 229.201 49.3295V66H223.031V50.2841C223.031 48.5227 222.576 47.1534 221.667 46.1761C220.769 45.1875 219.508 44.6932 217.883 44.6932C216.792 44.6932 215.815 44.9318 214.951 45.4091C214.099 45.875 213.428 46.5511 212.94 47.4375C212.462 48.3239 212.224 49.3977 212.224 50.6591ZM243.025 66.5284C241.366 66.5284 239.871 66.233 238.542 65.642C237.224 65.0398 236.178 64.1534 235.406 62.983C234.644 61.8125 234.263 60.3693 234.263 58.6534C234.263 57.1761 234.536 55.9545 235.082 54.9886C235.627 54.0227 236.371 53.25 237.315 52.6705C238.258 52.0909 239.32 51.6534 240.502 51.358C241.695 51.0511 242.928 50.8295 244.201 50.6932C245.735 50.5341 246.979 50.392 247.934 50.267C248.888 50.1307 249.582 49.9261 250.013 49.6534C250.457 49.3693 250.678 48.9318 250.678 48.3409V48.2386C250.678 46.9545 250.298 45.9602 249.536 45.2557C248.775 44.5511 247.678 44.1989 246.246 44.1989C244.735 44.1989 243.536 44.5284 242.65 45.1875C241.775 45.8466 241.184 46.625 240.877 47.5227L235.116 46.7045C235.57 45.1136 236.32 43.7841 237.366 42.7159C238.411 41.6364 239.69 40.8295 241.201 40.2955C242.712 39.75 244.383 39.4773 246.212 39.4773C247.474 39.4773 248.729 39.625 249.979 39.9205C251.229 40.2159 252.371 40.7045 253.406 41.3864C254.44 42.0568 255.269 42.9716 255.894 44.1307C256.531 45.2898 256.849 46.7386 256.849 48.4773V66H250.917V62.4034H250.712C250.337 63.1307 249.809 63.8125 249.127 64.4489C248.457 65.0739 247.61 65.5795 246.587 65.9659C245.576 66.3409 244.388 66.5284 243.025 66.5284ZM244.627 61.9943C245.866 61.9943 246.94 61.75 247.849 61.2614C248.758 60.7614 249.457 60.1023 249.945 59.2841C250.445 58.4659 250.695 57.5739 250.695 56.608V53.5227C250.502 53.6818 250.173 53.8295 249.707 53.9659C249.252 54.1023 248.741 54.2216 248.173 54.3239C247.604 54.4261 247.042 54.517 246.485 54.5966C245.928 54.6761 245.445 54.7443 245.036 54.8011C244.116 54.9261 243.292 55.1307 242.565 55.4148C241.837 55.6989 241.263 56.0966 240.843 56.608C240.423 57.108 240.212 57.7557 240.212 58.5511C240.212 59.6875 240.627 60.5455 241.457 61.125C242.286 61.7045 243.343 61.9943 244.627 61.9943ZM244.116 36.375L247.934 28.5852H253.968L248.735 36.375H244.116ZM274.474 66.5114C271.86 66.5114 269.616 65.9375 267.741 64.7898C265.877 63.642 264.44 62.0568 263.428 60.0341C262.428 58 261.928 55.6591 261.928 53.0114C261.928 50.3523 262.44 48.0057 263.462 45.9716C264.485 43.9261 265.928 42.3352 267.792 41.1989C269.667 40.0511 271.883 39.4773 274.44 39.4773C276.565 39.4773 278.445 39.8693 280.082 40.6534C281.729 41.4261 283.042 42.5227 284.019 43.9432C284.996 45.3523 285.553 47 285.69 48.8864H279.792C279.553 47.625 278.985 46.5739 278.087 45.733C277.201 44.8807 276.013 44.4545 274.525 44.4545C273.263 44.4545 272.156 44.7955 271.201 45.4773C270.246 46.1477 269.502 47.1136 268.968 48.375C268.445 49.6364 268.184 51.1477 268.184 52.9091C268.184 54.6932 268.445 56.2273 268.968 57.5114C269.491 58.7841 270.224 59.767 271.167 60.4602C272.121 61.142 273.241 61.483 274.525 61.483C275.434 61.483 276.246 61.3125 276.962 60.9716C277.69 60.6193 278.298 60.1136 278.786 59.4545C279.275 58.7955 279.61 57.9943 279.792 57.0511H285.69C285.542 58.9034 284.996 60.5455 284.053 61.9773C283.11 63.3977 281.826 64.5114 280.201 65.3182C278.576 66.1136 276.667 66.5114 274.474 66.5114ZM296.927 50.6591V66H290.756V31.0909H296.79V44.267H297.097C297.711 42.7898 298.66 41.625 299.944 40.7727C301.239 39.9091 302.887 39.4773 304.887 39.4773C306.705 39.4773 308.29 39.858 309.643 40.6193C310.995 41.3807 312.04 42.4943 312.779 43.9602C313.529 45.4261 313.904 47.2159 313.904 49.3295V66H307.734V50.2841C307.734 48.5227 307.279 47.1534 306.37 46.1761C305.472 45.1875 304.211 44.6932 302.586 44.6932C301.495 44.6932 300.518 44.9318 299.654 45.4091C298.802 45.875 298.131 46.5511 297.643 47.4375C297.165 48.3239 296.927 49.3977 296.927 50.6591ZM338.271 50.6591V66H332.1V31.0909H338.134V44.267H338.441C339.055 42.7898 340.004 41.625 341.288 40.7727C342.583 39.9091 344.231 39.4773 346.231 39.4773C348.049 39.4773 349.634 39.858 350.987 40.6193C352.339 41.3807 353.384 42.4943 354.123 43.9602C354.873 45.4261 355.248 47.2159 355.248 49.3295V66H349.077V50.2841C349.077 48.5227 348.623 47.1534 347.714 46.1761C346.816 45.1875 345.555 44.6932 343.93 44.6932C342.839 44.6932 341.862 44.9318 340.998 45.4091C340.146 45.875 339.475 46.5511 338.987 47.4375C338.509 48.3239 338.271 49.3977 338.271 50.6591ZM369.072 66.5284C367.413 66.5284 365.918 66.233 364.589 65.642C363.271 65.0398 362.225 64.1534 361.452 62.983C360.691 61.8125 360.31 60.3693 360.31 58.6534C360.31 57.1761 360.583 55.9545 361.129 54.9886C361.674 54.0227 362.418 53.25 363.362 52.6705C364.305 52.0909 365.367 51.6534 366.549 51.358C367.742 51.0511 368.975 50.8295 370.248 50.6932C371.782 50.5341 373.026 50.392 373.981 50.267C374.935 50.1307 375.629 49.9261 376.06 49.6534C376.504 49.3693 376.725 48.9318 376.725 48.3409V48.2386C376.725 46.9545 376.344 45.9602 375.583 45.2557C374.822 44.5511 373.725 44.1989 372.293 44.1989C370.782 44.1989 369.583 44.5284 368.697 45.1875C367.822 45.8466 367.231 46.625 366.924 47.5227L361.163 46.7045C361.617 45.1136 362.367 43.7841 363.413 42.7159C364.458 41.6364 365.737 40.8295 367.248 40.2955C368.759 39.75 370.43 39.4773 372.259 39.4773C373.521 39.4773 374.776 39.625 376.026 39.9205C377.276 40.2159 378.418 40.7045 379.452 41.3864C380.487 42.0568 381.316 42.9716 381.941 44.1307C382.577 45.2898 382.896 46.7386 382.896 48.4773V66H376.964V62.4034H376.759C376.384 63.1307 375.856 63.8125 375.174 64.4489C374.504 65.0739 373.657 65.5795 372.634 65.9659C371.623 66.3409 370.435 66.5284 369.072 66.5284ZM370.674 61.9943C371.913 61.9943 372.987 61.75 373.896 61.2614C374.805 60.7614 375.504 60.1023 375.992 59.2841C376.492 58.4659 376.742 57.5739 376.742 56.608V53.5227C376.549 53.6818 376.219 53.8295 375.754 53.9659C375.299 54.1023 374.788 54.2216 374.219 54.3239C373.651 54.4261 373.089 54.517 372.532 54.5966C371.975 54.6761 371.492 54.7443 371.083 54.8011C370.163 54.9261 369.339 55.1307 368.612 55.4148C367.884 55.6989 367.31 56.0966 366.89 56.608C366.469 57.108 366.259 57.7557 366.259 58.5511C366.259 59.6875 366.674 60.5455 367.504 61.125C368.333 61.7045 369.39 61.9943 370.674 61.9943ZM370.282 36.375L365.049 28.5852H371.1L374.901 36.375H370.282ZM395.271 50.6591V66H389.1V39.8182H394.998V44.267H395.305C395.907 42.8011 396.867 41.6364 398.185 40.7727C399.515 39.9091 401.157 39.4773 403.112 39.4773C404.918 39.4773 406.492 39.8636 407.833 40.6364C409.185 41.4091 410.231 42.5284 410.969 43.9943C411.719 45.4602 412.089 47.2386 412.077 49.3295V66H405.907V50.2841C405.907 48.5341 405.452 47.1648 404.543 46.1761C403.646 45.1875 402.401 44.6932 400.81 44.6932C399.731 44.6932 398.771 44.9318 397.93 45.4091C397.1 45.875 396.447 46.5511 395.969 47.4375C395.504 48.3239 395.271 49.3977 395.271 50.6591ZM429.737 76.3636C427.521 76.3636 425.617 76.0625 424.026 75.4602C422.435 74.8693 421.157 74.0739 420.191 73.0739C419.225 72.0739 418.555 70.9659 418.18 69.75L423.737 68.4034C423.987 68.9148 424.35 69.4205 424.827 69.9205C425.305 70.4318 425.947 70.8523 426.754 71.1818C427.572 71.5227 428.6 71.6932 429.839 71.6932C431.589 71.6932 433.038 71.267 434.185 70.4148C435.333 69.5739 435.907 68.1875 435.907 66.2557V61.2955H435.6C435.282 61.9318 434.816 62.5852 434.202 63.2557C433.6 63.9261 432.799 64.4886 431.799 64.9432C430.81 65.3977 429.566 65.625 428.066 65.625C426.055 65.625 424.231 65.1534 422.594 64.2102C420.969 63.2557 419.674 61.8352 418.708 59.9489C417.754 58.0511 417.276 55.6761 417.276 52.8239C417.276 49.9489 417.754 47.5227 418.708 45.5455C419.674 43.5568 420.975 42.0511 422.612 41.0284C424.248 39.9943 426.072 39.4773 428.083 39.4773C429.617 39.4773 430.879 39.7386 431.867 40.2614C432.867 40.7727 433.663 41.392 434.254 42.1193C434.844 42.8352 435.293 43.5114 435.6 44.1477H435.941V39.8182H442.026V66.4261C442.026 68.6648 441.492 70.517 440.424 71.983C439.356 73.4489 437.896 74.5455 436.043 75.2727C434.191 76 432.089 76.3636 429.737 76.3636ZM429.788 60.7841C431.094 60.7841 432.208 60.4659 433.129 59.8295C434.049 59.1932 434.748 58.2784 435.225 57.0852C435.702 55.892 435.941 54.4602 435.941 52.7898C435.941 51.142 435.702 49.6989 435.225 48.4602C434.759 47.2216 434.066 46.2614 433.146 45.5795C432.237 44.8864 431.117 44.5398 429.788 44.5398C428.413 44.5398 427.265 44.8977 426.344 45.6136C425.424 46.3295 424.731 47.3125 424.265 48.5625C423.799 49.8011 423.566 51.2102 423.566 52.7898C423.566 54.392 423.799 55.7955 424.265 57C424.742 58.1932 425.441 59.125 426.362 59.7955C427.293 60.4545 428.435 60.7841 429.788 60.7841Z" fill="#3E2522"/>
<path d="M478 38L490 50L502 38" stroke="#3E2522" stroke-width="2" stroke-linecap="round" stroke-linejoin="round"/>
</svg>
