<svg width="40" height="40" viewBox="0 0 40 40" fill="none" xmlns="http://www.w3.org/2000/svg">
<path d="M3.41406 3.41602H6.7474L11.1807 24.116C11.3434 24.8741 11.7652 25.5518 12.3736 26.0324C12.982 26.5131 13.7389 26.7666 14.5141 26.7493H30.8141C31.5727 26.7481 32.3082 26.4882 32.8991 26.0124C33.49 25.5367 33.901 24.8736 34.0641 24.1327L36.8141 11.7493H8.53073M14.9974 34.9993C14.9974 35.9198 14.2512 36.666 13.3307 36.666C12.4103 36.666 11.6641 35.9198 11.6641 34.9993C11.6641 34.0789 12.4103 33.3327 13.3307 33.3327C14.2512 33.3327 14.9974 34.0789 14.9974 34.9993ZM33.3307 34.9993C33.3307 35.9198 32.5845 36.666 31.6641 36.666C30.7436 36.666 29.9974 35.9198 29.9974 34.9993C29.9974 34.0789 30.7436 33.3327 31.6641 33.3327C32.5845 33.3327 33.3307 34.0789 33.3307 34.9993Z" stroke="black" stroke-width="2" stroke-linecap="round" stroke-linejoin="round"/>
</svg>
